<svg xmlns="http://www.w3.org/2000/svg" xmlns:xlink="http://www.w3.org/1999/xlink" width="3907.367" height="1687.157" viewBox="0 0 3907.367 1687.157">
  <defs>
    <style>
      .cls-1 {
        fill: #707070;
      }

      .cls-12, .cls-13, .cls-14, .cls-18, .cls-2 {
        fill: #fff;
      }

      .cls-2, .cls-7 {
        stroke: #707070;
      }

      .cls-22, .cls-3 {
        fill: #ff26a5;
      }

      .cls-4 {
        fill: #c72885;
      }

      .cls-5 {
        fill: #982669;
      }

      .cls-6 {
        fill: #b5b5b5;
      }

      .cls-24, .cls-7 {
        fill: none;
      }

      .cls-14, .cls-7 {
        stroke-width: 10px;
      }

      .cls-8 {
        fill: #363636;
      }

      .cls-11, .cls-9 {
        fill: #303030;
      }

      .cls-13, .cls-9 {
        stroke: #00fff0;
      }

      .cls-9 {
        stroke-width: 20px;
      }

      .cls-10 {
        fill: #212121;
        stroke-width: 30px;
      }

      .cls-10, .cls-12, .cls-14 {
        stroke: #ff26a5;
      }

      .cls-12, .cls-13 {
        stroke-width: 15px;
      }

      .cls-12 {
        font-size: 901px;
      }

      .cls-12, .cls-22 {
        font-family: FreestyleScript-Regular, Freestyle Script;
      }

      .cls-13 {
        font-size: 560px;
      }

      .cls-13, .cls-14 {
        font-family: SegoeUI, Segoe UI;
      }

      .cls-14 {
        font-size: 374px;
      }

      .cls-15 {
        fill: #00fff0;
      }

      .cls-16 {
        fill: #c2c2c2;
      }

      .cls-17 {
        fill: #e5e5e5;
      }

      .cls-19 {
        fill: #01af01;
      }

      .cls-20 {
        fill: lime;
      }

      .cls-21 {
        fill: #fe0;
      }

      .cls-22 {
        font-size: 137px;
      }

      .cls-23 {
        stroke: none;
      }

      .cls-25 {
        filter: url(#Unión_3);
      }

      .cls-26 {
        filter: url(#Rectángulo_1);
      }
    </style>
    <filter id="Rectángulo_1" x="775.791" y="527.157" width="3047" height="770" filterUnits="userSpaceOnUse">
      <feOffset input="SourceAlpha"/>
      <feGaussianBlur stdDeviation="15" result="blur"/>
      <feFlood flood-opacity="0.161"/>
      <feComposite operator="in" in2="blur"/>
      <feComposite in="SourceGraphic"/>
    </filter>
    <filter id="Unión_3" x="0" y="0" width="1482.791" height="1567.157" filterUnits="userSpaceOnUse">
      <feOffset input="SourceAlpha"/>
      <feGaussianBlur stdDeviation="30" result="blur-2"/>
      <feFlood flood-opacity="0.161"/>
      <feComposite operator="in" in2="blur-2"/>
      <feComposite in="SourceGraphic"/>
    </filter>
  </defs>
  <g id="darkLogoV3" transform="translate(247.791 362.157)">
    <g id="Teclado" transform="translate(-2801 -1169)">
      <rect id="Rectángulo_13" data-name="Rectángulo 13" class="cls-1" width="1401" height="450" rx="84" transform="translate(3696 2044)"/>
      <g id="Rectángulo_14" data-name="Rectángulo 14" class="cls-2" transform="translate(3757 2138)">
        <rect class="cls-23" width="1280" height="305" rx="24"/>
        <rect class="cls-24" x="0.5" y="0.5" width="1279" height="304" rx="23.5"/>
      </g>
      <circle id="Elipse_7" data-name="Elipse 7" class="cls-3" cx="15" cy="15" r="15" transform="translate(3778 2081)"/>
      <circle id="Elipse_8" data-name="Elipse 8" class="cls-4" cx="15" cy="15" r="15" transform="translate(3812 2081)"/>
      <circle id="Elipse_9" data-name="Elipse 9" class="cls-5" cx="15" cy="15" r="15" transform="translate(3846 2081)"/>
      <rect id="Rectángulo_18" data-name="Rectángulo 18" class="cls-6" width="65" height="74" rx="15" transform="translate(4472 2249)"/>
      <rect id="Rectángulo_17" data-name="Rectángulo 17" class="cls-6" width="116" height="44" rx="15" transform="translate(4421 2332)"/>
      <rect id="Rectángulo_20" data-name="Rectángulo 20" class="cls-6" width="43" height="44" rx="15" transform="translate(4587 2384)"/>
      <rect id="Rectángulo_24" data-name="Rectángulo 24" class="cls-6" width="43" height="44" rx="15" transform="translate(4537 2384)"/>
      <rect id="Rectángulo_25" data-name="Rectángulo 25" class="cls-6" width="43" height="44" rx="15" transform="translate(4637 2384)"/>
      <rect id="Rectángulo_51" data-name="Rectángulo 51" class="cls-6" width="43" height="44" rx="15" transform="translate(4580 2197)"/>
      <rect id="Rectángulo_56" data-name="Rectángulo 56" class="cls-6" width="43" height="44" rx="15" transform="translate(4580 2247)"/>
      <rect id="Rectángulo_59" data-name="Rectángulo 59" class="cls-6" width="43" height="44" rx="15" transform="translate(4772 2196)"/>
      <rect id="Rectángulo_63" data-name="Rectángulo 63" class="cls-6" width="43" height="44" rx="15" transform="translate(4772 2245)"/>
      <rect id="Rectángulo_67" data-name="Rectángulo 67" class="cls-6" width="43" height="44" rx="15" transform="translate(4772 2294)"/>
      <rect id="Rectángulo_71" data-name="Rectángulo 71" class="cls-6" width="96" height="44" rx="15" transform="translate(4772 2343)"/>
      <rect id="Rectángulo_52" data-name="Rectángulo 52" class="cls-6" width="43" height="44" rx="15" transform="translate(4633 2197)"/>
      <rect id="Rectángulo_55" data-name="Rectángulo 55" class="cls-6" width="43" height="44" rx="15" transform="translate(4633 2247)"/>
      <rect id="Rectángulo_58" data-name="Rectángulo 58" class="cls-6" width="43" height="44" rx="15" transform="translate(4825 2196)"/>
      <rect id="Rectángulo_62" data-name="Rectángulo 62" class="cls-6" width="43" height="44" rx="15" transform="translate(4825 2245)"/>
      <rect id="Rectángulo_66" data-name="Rectángulo 66" class="cls-6" width="43" height="44" rx="15" transform="translate(4825 2294)"/>
      <rect id="Rectángulo_53" data-name="Rectángulo 53" class="cls-6" width="43" height="44" rx="15" transform="translate(4686 2195)"/>
      <rect id="Rectángulo_54" data-name="Rectángulo 54" class="cls-6" width="43" height="44" rx="15" transform="translate(4686 2245)"/>
      <rect id="Rectángulo_57" data-name="Rectángulo 57" class="cls-6" width="43" height="44" rx="15" transform="translate(4878 2194)"/>
      <rect id="Rectángulo_61" data-name="Rectángulo 61" class="cls-6" width="43" height="44" rx="15" transform="translate(4878 2243)"/>
      <rect id="Rectángulo_65" data-name="Rectángulo 65" class="cls-6" width="43" height="44" rx="15" transform="translate(4878 2292)"/>
      <rect id="Rectángulo_69" data-name="Rectángulo 69" class="cls-6" width="43" height="44" rx="15" transform="translate(4878 2341)"/>
      <rect id="Rectángulo_60" data-name="Rectángulo 60" class="cls-6" width="43" height="44" rx="15" transform="translate(4931 2196)"/>
      <rect id="Rectángulo_64" data-name="Rectángulo 64" class="cls-6" width="43" height="44" rx="15" transform="translate(4931 2245)"/>
      <rect id="Rectángulo_68" data-name="Rectángulo 68" class="cls-6" width="43" height="90" rx="15" transform="translate(4931 2294)"/>
      <rect id="Rectángulo_26" data-name="Rectángulo 26" class="cls-6" width="43" height="44" rx="15" transform="translate(4587 2332)"/>
      <rect id="Rectángulo_27" data-name="Rectángulo 27" class="cls-6" width="43" height="44" rx="15" transform="translate(4006 2204)"/>
      <rect id="Rectángulo_42" data-name="Rectángulo 42" class="cls-6" width="43" height="44" rx="15" transform="translate(4006 2257)"/>
      <rect id="Rectángulo_50" data-name="Rectángulo 50" class="cls-6" width="43" height="44" rx="15" transform="translate(4001 2310)"/>
      <rect id="Rectángulo_28" data-name="Rectángulo 28" class="cls-6" width="43" height="44" rx="15" transform="translate(3953 2204)"/>
      <rect id="Rectángulo_41" data-name="Rectángulo 41" class="cls-6" width="43" height="44" rx="15" transform="translate(3953 2257)"/>
      <rect id="Rectángulo_49" data-name="Rectángulo 49" class="cls-6" width="43" height="44" rx="15" transform="translate(3948 2310)"/>
      <rect id="Rectángulo_29" data-name="Rectángulo 29" class="cls-6" width="43" height="44" rx="15" transform="translate(4059 2204)"/>
      <rect id="Rectángulo_40" data-name="Rectángulo 40" class="cls-6" width="43" height="44" rx="15" transform="translate(4059 2257)"/>
      <rect id="Rectángulo_48" data-name="Rectángulo 48" class="cls-6" width="43" height="44" rx="15" transform="translate(4054 2310)"/>
      <rect id="Rectángulo_30" data-name="Rectángulo 30" class="cls-6" width="43" height="44" rx="15" transform="translate(4112 2204)"/>
      <rect id="Rectángulo_39" data-name="Rectángulo 39" class="cls-6" width="43" height="44" rx="15" transform="translate(4112 2257)"/>
      <rect id="Rectángulo_47" data-name="Rectángulo 47" class="cls-6" width="43" height="44" rx="15" transform="translate(4107 2310)"/>
      <rect id="Rectángulo_31" data-name="Rectángulo 31" class="cls-6" width="43" height="44" rx="15" transform="translate(4165 2205)"/>
      <rect id="Rectángulo_38" data-name="Rectángulo 38" class="cls-6" width="43" height="44" rx="15" transform="translate(4165 2258)"/>
      <rect id="Rectángulo_46" data-name="Rectángulo 46" class="cls-6" width="43" height="44" rx="15" transform="translate(4160 2311)"/>
      <rect id="Rectángulo_32" data-name="Rectángulo 32" class="cls-6" width="43" height="44" rx="15" transform="translate(4218 2205)"/>
      <rect id="Rectángulo_37" data-name="Rectángulo 37" class="cls-6" width="43" height="44" rx="15" transform="translate(4218 2258)"/>
      <rect id="Rectángulo_45" data-name="Rectángulo 45" class="cls-6" width="43" height="44" rx="15" transform="translate(4213 2311)"/>
      <rect id="Rectángulo_33" data-name="Rectángulo 33" class="cls-6" width="43" height="44" rx="15" transform="translate(4271 2205)"/>
      <rect id="Rectángulo_36" data-name="Rectángulo 36" class="cls-6" width="43" height="44" rx="15" transform="translate(4271 2258)"/>
      <rect id="Rectángulo_44" data-name="Rectángulo 44" class="cls-6" width="43" height="44" rx="15" transform="translate(4266 2311)"/>
      <rect id="Rectángulo_34" data-name="Rectángulo 34" class="cls-6" width="43" height="44" rx="15" transform="translate(4324 2205)"/>
      <rect id="Rectángulo_35" data-name="Rectángulo 35" class="cls-6" width="43" height="44" rx="15" transform="translate(4324 2258)"/>
      <rect id="Rectángulo_43" data-name="Rectángulo 43" class="cls-6" width="43" height="44" rx="15" transform="translate(4319 2311)"/>
      <rect id="Rectángulo_21" data-name="Rectángulo 21" class="cls-6" width="116" height="44" rx="15" transform="translate(3784 2279)"/>
      <rect id="Rectángulo_72" data-name="Rectángulo 72" class="cls-6" width="73" height="44" rx="15" transform="translate(3793 2380)"/>
      <rect id="Rectángulo_73" data-name="Rectángulo 73" class="cls-6" width="73" height="44" rx="15" transform="translate(3875 2380)"/>
      <rect id="Rectángulo_22" data-name="Rectángulo 22" class="cls-6" width="116" height="44" rx="15" transform="translate(3784 2226)"/>
      <rect id="Rectángulo_23" data-name="Rectángulo 23" class="cls-6" width="116" height="44" rx="15" transform="translate(3784 2173)"/>
      <rect id="Rectángulo_19" data-name="Rectángulo 19" class="cls-6" width="116" height="44" rx="15" transform="translate(4421 2197)"/>
      <rect id="Rectángulo_16" data-name="Rectángulo 16" class="cls-6" width="423" height="52" rx="15" transform="translate(3974 2376)"/>
    </g>
    <g id="Mouse" transform="translate(-2775 -841)">
      <path id="Trazado_9" data-name="Trazado 9" class="cls-7" d="M6267.645,1398.156c72.056-1.736,126.426-134.4,122.75-266.473-2.993-107.559-44.22-214.653-145.265-251.277-186.349-67.544-602.766,102.935-871.423,98.821-392.394-6.009-750.143-179.675-750.143-179.675" transform="translate(39)"/>
      <rect id="Rectángulo_10" data-name="Rectángulo 10" class="cls-1" width="300" height="170" rx="73" transform="matrix(0.921, 0.391, -0.391, 0.921, 4437.136, 600.147)"/>
      <rect id="Rectángulo_12" data-name="Rectángulo 12" class="cls-8" width="126" height="11" transform="matrix(0.921, 0.391, -0.391, 0.921, 4405.878, 673.788)"/>
      <rect id="Rectángulo_11" data-name="Rectángulo 11" class="cls-6" width="62" height="19" rx="9.5" transform="matrix(0.921, 0.391, -0.391, 0.921, 4437.817, 683)"/>
    </g>
    <g class="cls-26" transform="matrix(1, 0, 0, 1, -247.79, -362.16)">
      <g id="Rectángulo_1-2" data-name="Rectángulo 1" class="cls-9" transform="translate(820.79 572.16)">
        <rect class="cls-23" width="2957" height="680" rx="326"/>
        <rect class="cls-24" x="10" y="10" width="2937" height="660" rx="316"/>
      </g>
    </g>
    <g id="CabezaGato">
      <g class="cls-25" transform="matrix(1, 0, 0, 1, -247.79, -362.16)">
        <path id="Unión_3-2" data-name="Unión 3" class="cls-10" d="M-2507.316-2143.985q0-27.838,2.715-55c-204.945-105.157-173.808-319.577-173.808-319.577s4.953-18.229,28.335-17.731c31.712.675,90.321,22.3,143.895,43.658,32.893,13.113,68.966,20.29,102.788,26.836a552.349,552.349,0,0,1,200.431-170.422c-30.726-210.057,143.313-313.352,143.313-313.352s17.309-7.623,31.649,10.842c19.45,25.042,39.533,84.146,56.655,139.172,11.675,37.519,31.521,73.482,49.19,106.675,287.374,18.129,514.837,256.948,514.837,548.894,0,303.756-246.244,550-550,550S-2507.316-1840.228-2507.316-2143.985Z" transform="translate(2785.11 3056.14)"/>
      </g>
      <path id="Trazado_12" data-name="Trazado 12" class="cls-11" d="M1.279,223.973C-18.905-25.6,206.408.805,206.408.805a24.546,24.546,0,0,1,17.207,18.772c4.766,21.249-.821,60.758-7.049,96.893-5.393,31.292-1.4,66.688-1.056,96.14.1,8.938-.868,119.991,8.067,128.211,7.947,7.311-30.356-31.876-30.7-29.005-.485,4.368-32.887-10.494-40.26-8.247-16.113,4.911-39.611-36.608-70.1-55.126C44.987,225.649,1.279,223.973,1.279,223.973Z" transform="translate(295.198 -123.238) rotate(-31)"/>
      <path id="Trazado_12-2" data-name="Trazado 12" class="cls-11" d="M109.663-42.927C333.5-155.133,393.423,63.665,393.423,63.665a24.546,24.546,0,0,1-10.959,22.986c-17.916,12.379-56.642,22-92.478,29.761-31.034,6.722-62.357,23.683-89.535,35.036C192.2,154.893,88.873,195.593,84.6,206.956c-3.8,10.107,18.183-40.087,15.393-39.328-4.232,1.187-2.59-34.423-7.435-40.418-10.59-13.1,19.1-50.44,24.852-85.648C124.483-1.774,109.663-42.927,109.663-42.927Z" transform="translate(185.808 448.048) rotate(-150)"/>
    </g>
    <text id="K" class="cls-12" transform="translate(250 833)"><tspan x="0" y="0">K</tspan></text>
    <text id="RISSTAL" class="cls-13" transform="translate(669 782)"><tspan x="0" y="0">RISSTAL</tspan></text>
    <text id="NET." class="cls-14" transform="translate(2643 384)"><tspan x="0" y="404">NET.</tspan></text>
    <g id="penacho" transform="translate(-47 -45)">
      <path id="Trazado_1" data-name="Trazado 1" class="cls-15" d="M1691.711-446.957c231.68-212.053,219.9-20.944,219.9-20.944Z" transform="matrix(0.996, 0.087, -0.087, 0.996, 1382.558, 821.086)"/>
      <path id="Trazado_2" data-name="Trazado 2" class="cls-15" d="M1691.711-446.957c231.68-212.053,219.9-20.944,219.9-20.944Z" transform="matrix(0.819, -0.574, 0.574, 0.819, 1958.54, 1859.605)"/>
      <path id="Trazado_3" data-name="Trazado 3" class="cls-15" d="M1691.711-446.957c231.68-212.053,219.9-20.944,219.9-20.944Z" transform="matrix(0.259, -0.966, 0.966, 0.259, 3066, 2272.946)"/>
    </g>
    <g id="impresoraBlanca" transform="translate(-3744 -948)">
      <rect id="Rectángulo_3" data-name="Rectángulo 3" class="cls-16" width="546" height="291" rx="25" transform="translate(4526 833)"/>
      <path id="Unión_1" data-name="Unión 1" class="cls-17" d="M25,156.033a25,25,0,0,1-25-25V0H363.8V131.033a25,25,0,0,1-25,25Z" transform="translate(4616.951 833.29)"/>
      <rect id="Rectángulo_6" data-name="Rectángulo 6" class="cls-18" width="274" height="163" transform="translate(4662 670)"/>
      <ellipse id="Elipse_4" data-name="Elipse 4" class="cls-3" cx="11.5" cy="12" rx="11.5" ry="12" transform="translate(5014 864)"/>
      <circle id="Elipse_5" data-name="Elipse 5" class="cls-15" cx="11.5" cy="11.5" r="11.5" transform="translate(5014 892)"/>
      <rect id="Rectángulo_8" data-name="Rectángulo 8" class="cls-8" width="315" height="39" rx="11" transform="translate(4642 1085)"/>
      <g id="impresion" transform="translate(4662.236 1100)">
        <rect id="Rectángulo_7" data-name="Rectángulo 7" class="cls-18" width="274" height="127" transform="translate(-0.236)"/>
        <rect id="Rectángulo_9" data-name="Rectángulo 9" class="cls-15" width="238" height="115" transform="translate(17.764)"/>
        <path id="Trazado_6" data-name="Trazado 6" class="cls-19" d="M4846.624,1001.462c-24.827-11.8-66.458-14.712-93.432-25.523-17.228-6.9-35.449-20.227-51.466-28.194-13.61-6.77-26.72-16.264-36.017-16.371-21.752-.249-22.266,3.941-33.282,11.823-23.783,17.011-21.4,58.265-21.4,58.265h235.595Z" transform="translate(-4592.649 -887.163)"/>
        <path id="Trazado_5" data-name="Trazado 5" class="cls-20" d="M4611,996.357c24.828-11.8,66.458-14.712,93.433-25.523,32.876-13.177,50.224-32.973,69.755-33.2,21.751-.249,28.649,11.217,39.665,19.1,23.783,17.011,32.743,39.621,32.743,39.621H4611Z" transform="translate(-4592.62 -882.057)"/>
        <circle id="Elipse_6" data-name="Elipse 6" class="cls-21" cx="18.5" cy="18.5" r="18.5" transform="translate(213.764 2)"/>
        <path id="Trazado_7" data-name="Trazado 7" class="cls-18" d="M4682.846,935.777c-5.521-1.435-11.9.288-14.615-1.582-7.362-5.016,3.672-13.534,3.672-13.534s-.8-6.469,2.554-9.553c3.3-3.056,11.532-2.565,18.837,1.433,2.826,1.548,11.5-5.919,14.365-4.936,2.715.8,1.056-.016,2.554.8,5.249,2.81,4.151,9.235,4.151,9.235s10.73-.682,6.225,8.12c-.257.509-4.467,1.071-5.108,2.707-.663,1.7,1.93,5.075,0,7.314-2.25,2.611-6.616.4-10.535.966-3.192.466-5.962,3.615-8.78,5.095-9.578,5.043-13.32-6.06-13.32-6.06" transform="translate(-4560.553 -899.326)"/>
      </g>
      <text id="K-2" data-name="K" class="cls-22" transform="translate(4752 940)"><tspan x="0" y="0">K</tspan></text>
    </g>
  </g>
</svg>
