<?xml version="1.0" encoding="UTF-8" standalone="no"?><!-- Generator: Gravit.io --><svg xmlns="http://www.w3.org/2000/svg" xmlns:xlink="http://www.w3.org/1999/xlink" style="isolation:isolate" viewBox="78.955 45.955 100.089 60.045" width="100.089pt" height="60.045pt"><g><path d="M 97.752 49.904 L 135.056 87.208 C 139.809 91.961 140.341 99.146 136.244 103.244 L 136.244 103.244 C 132.146 107.341 124.961 106.809 120.208 102.056 L 82.904 64.752 C 78.151 59.999 77.619 52.814 81.716 48.716 L 81.716 48.716 C 85.814 44.619 92.999 45.151 97.752 49.904 Z" style="stroke:none;fill:#AAAAAA;stroke-miterlimit:10;"/><path d="M 122.944 87.208 L 160.248 49.904 C 165.001 45.151 172.186 44.619 176.284 48.716 L 176.284 48.716 C 180.381 52.814 179.849 59.999 175.096 64.752 L 137.792 102.056 C 133.039 106.809 125.854 107.341 121.756 103.244 L 121.756 103.244 C 117.659 99.146 118.191 91.961 122.944 87.208 Z" style="stroke:none;fill:#818181;stroke-miterlimit:10;"/></g></svg>