<svg xmlns="http://www.w3.org/2000/svg" width="319" height="310" viewBox="0 0 319 310">
  <defs>
    <style>
      .cls-1 {
        fill: #3223c8;
      }

      .cls-2 {
        fill: #e5e5e5;
      }

      .cls-3 {
        fill: #fff;
      }
    </style>
  </defs>
  <g id="Guardado" transform="translate(1148 374)">
    <path id="Rectángulo_47" data-name="Rectángulo 47" class="cls-1" d="M70,0H304a15,15,0,0,1,15,15V295a15,15,0,0,1-15,15H15A15,15,0,0,1,0,295V70A70,70,0,0,1,70,0Z" transform="translate(-1148 -374)"/>
    <path id="Rectángulo_48" data-name="Rectángulo 48" class="cls-2" d="M0,0H187a0,0,0,0,1,0,0V96a15,15,0,0,1-15,15H15A15,15,0,0,1,0,96V0A0,0,0,0,1,0,0Z" transform="translate(-1078 -348)"/>
    <rect id="Rectángulo_49" data-name="Rectángulo 49" width="44" height="64" rx="15" transform="translate(-1050 -328)"/>
    <path id="Rectángulo_50" data-name="Rectángulo 50" class="cls-3" d="M20,0H236a20,20,0,0,1,20,20V135a0,0,0,0,1,0,0H0a0,0,0,0,1,0,0V20A20,20,0,0,1,20,0Z" transform="translate(-1116 -216)"/>
    <rect id="Rectángulo_51" data-name="Rectángulo 51" width="218" height="16" rx="8" transform="translate(-1097 -184)"/>
    <rect id="Rectángulo_52" data-name="Rectángulo 52" width="218" height="16" rx="8" transform="translate(-1097 -162)"/>
    <rect id="Rectángulo_53" data-name="Rectángulo 53" width="218" height="16" rx="8" transform="translate(-1097 -140)"/>
    <rect id="Rectángulo_54" data-name="Rectángulo 54" width="218" height="16" rx="8" transform="translate(-1097 -118)"/>
  </g>
</svg>
