<svg xmlns="http://www.w3.org/2000/svg" width="241.477" height="310.029" viewBox="0 0 241.477 310.029">
  <defs>
    <style>
      .cls-1 {
        fill: #f1f1f1;
      }

      .cls-2 {
        fill: #e2e2e2;
      }

      .cls-3 {
        fill: #979797;
      }
    </style>
  </defs>
  <g id="Hoja" transform="translate(794 493.029)">
    <path id="Rectángulo_54" data-name="Rectángulo 54" class="cls-1" d="M0,0H180a60,60,0,0,1,60,60V310a0,0,0,0,1,0,0H0a0,0,0,0,1,0,0V0A0,0,0,0,1,0,0Z" transform="translate(-794 -493)"/>
    <path id="Trazado_2" data-name="Trazado 2" class="cls-2" d="M-609.429-493a22.469,22.469,0,0,1,6.918,14.478,34.372,34.372,0,0,1-1.276,12.549h0a37.909,37.909,0,0,1-16.436,24.262h66.7s-.093-6.564-7.878-20.981a28.172,28.172,0,0,0-2.159-3.48,93.43,93.43,0,0,0-6.985-8.473,58.7,58.7,0,0,0-6.6-5.745c-1.163-.872-2.242-1.7-3.682-2.616a66.956,66.956,0,0,0-6.873-3.816c-13.581-6.425-16.677-6.134-18.958-6.176a11.671,11.671,0,0,0-2.076,0" transform="translate(1)"/>
    <rect id="Rectángulo_55" data-name="Rectángulo 55" class="cls-3" width="190" height="12" rx="6" transform="translate(-769 -423)"/>
    <rect id="Rectángulo_56" data-name="Rectángulo 56" class="cls-3" width="190" height="12" rx="6" transform="translate(-769 -357)"/>
    <rect id="Rectángulo_59" data-name="Rectángulo 59" class="cls-3" width="190" height="12" rx="6" transform="translate(-769 -335)"/>
    <rect id="Rectángulo_60" data-name="Rectángulo 60" class="cls-3" width="190" height="12" rx="6" transform="translate(-769 -313)"/>
    <rect id="Rectángulo_61" data-name="Rectángulo 61" class="cls-3" width="190" height="12" rx="6" transform="translate(-769 -291)"/>
    <rect id="Rectángulo_62" data-name="Rectángulo 62" class="cls-3" width="190" height="12" rx="6" transform="translate(-769 -269)"/>
    <rect id="Rectángulo_63" data-name="Rectángulo 63" class="cls-3" width="190" height="12" rx="6" transform="translate(-769 -247)"/>
    <rect id="Rectángulo_64" data-name="Rectángulo 64" class="cls-3" width="190" height="12" rx="6" transform="translate(-769 -225)"/>
    <rect id="Rectángulo_58" data-name="Rectángulo 58" class="cls-3" width="190" height="12" rx="6" transform="translate(-769 -401)"/>
    <rect id="Rectángulo_57" data-name="Rectángulo 57" class="cls-3" width="190" height="12" rx="6" transform="translate(-769 -379)"/>
  </g>
</svg>
