<svg xmlns="http://www.w3.org/2000/svg" xmlns:xlink="http://www.w3.org/1999/xlink" width="1568" height="1300.75" viewBox="0 0 1568 1300.75">
  <defs>
    <filter id="Elipse_1" x="0" y="0" width="1280" height="1280" filterUnits="userSpaceOnUse">
      <feOffset input="SourceAlpha"/>
      <feGaussianBlur stdDeviation="30" result="blur"/>
      <feFlood flood-opacity="0.161"/>
      <feComposite operator="in" in2="blur"/>
      <feComposite in="SourceGraphic"/>
    </filter>
    <filter id="Elipse_3" x="788" y="439" width="780" height="780" filterUnits="userSpaceOnUse">
      <feOffset input="SourceAlpha"/>
      <feGaussianBlur stdDeviation="30" result="blur-2"/>
      <feFlood flood-opacity="0.161"/>
      <feComposite operator="in" in2="blur-2"/>
      <feComposite in="SourceGraphic"/>
    </filter>
  </defs>
  <g id="miniLogoMaximo" transform="translate(-58 1438)">
    <g id="CabezaGato" transform="translate(118 -1348)">
      <g transform="matrix(1, 0, 0, 1, -60, -90)" filter="url(#Elipse_1)">
        <circle id="Elipse_1-2" data-name="Elipse 1" cx="550" cy="550" r="550" transform="translate(90 90)" fill="#ff26a5"/>
      </g>
      <text id="M" transform="translate(266.25 883.75)" fill="#fff" font-size="1000" font-family="FreestyleScript-Regular, Freestyle Script"><tspan x="0" y="0">M</tspan></text>
    </g>
    <g id="impresora" transform="translate(-3440 -1432)">
      <g transform="matrix(1, 0, 0, 1, 3498, -6)" filter="url(#Elipse_3)">
        <circle id="Elipse_3-2" data-name="Elipse 3" cx="300" cy="300" r="300" transform="translate(878 529)" fill="#00fff0"/>
      </g>
      <rect id="Rectángulo_3" data-name="Rectángulo 3" width="300" height="160" rx="25" transform="translate(4526 760)" fill="#474747"/>
      <path id="Unión_1" data-name="Unión 1" d="M25,86A25,25,0,0,1,.02,62H0V0H200V62h-.02A25,25,0,0,1,175,86Z" transform="translate(4576 760)" fill="#9b9b9b"/>
      <rect id="Rectángulo_6" data-name="Rectángulo 6" width="150" height="90" transform="translate(4601 670)" fill="#fff"/>
      <circle id="Elipse_4" data-name="Elipse 4" cx="6.5" cy="6.5" r="6.5" transform="translate(4794 777)" fill="#ff26a5"/>
      <circle id="Elipse_5" data-name="Elipse 5" cx="6.5" cy="6.5" r="6.5" transform="translate(4794 792)" fill="#00fff0"/>
      <rect id="Rectángulo_8" data-name="Rectángulo 8" width="173" height="21" rx="10.5" transform="translate(4590 899)" fill="#363636"/>
      <g id="impresion">
        <rect id="Rectángulo_7" data-name="Rectángulo 7" width="150" height="70" transform="translate(4601 907)" fill="#fff"/>
        <rect id="Rectángulo_9" data-name="Rectángulo 9" width="130" height="63" transform="translate(4611 907)" fill="#00fff0"/>
        <path id="Trazado_6" data-name="Trazado 6" d="M4740.518,970c-13.649-6.505-36.536-8.109-51.364-14.067-9.471-3.806-19.488-11.149-28.293-15.54-7.482-3.731-14.689-8.964-19.8-9.023-11.958-.137-12.241,2.172-18.3,6.517C4609.688,947.263,4611,970,4611,970h129.518Z" transform="translate(0)" fill="#01af01"/>
        <path id="Trazado_5" data-name="Trazado 5" d="M4611,970c13.649-6.505,36.536-8.109,51.364-14.067,18.074-7.263,27.61-18.173,38.348-18.3,11.958-.137,15.75,6.182,21.806,10.527a54.808,54.808,0,0,1,18,21.838H4611Z" fill="lime"/>
        <circle id="Elipse_6" data-name="Elipse 6" cx="10" cy="10" r="10" transform="translate(4718 908)" fill="#fe0"/>
        <path id="Trazado_7" data-name="Trazado 7" d="M4675.126,923.093c-3.036-.791-6.541.159-8.035-.872-4.047-2.764,2.019-7.459,2.019-7.459s-.438-3.566,1.4-5.265c1.814-1.684,6.34-1.414,10.355.79,1.554.853,6.323-3.262,7.9-2.72,1.492.439.581-.009,1.4.439,2.885,1.549,2.282,5.09,2.282,5.09s5.9-.376,3.422,4.476c-.141.281-2.455.59-2.808,1.492-.364.936,1.061,2.8,0,4.031-1.237,1.439-3.638.221-5.792.532-1.755.257-3.278,1.993-4.827,2.808-5.266,2.779-7.322-3.34-7.322-3.34" transform="translate(-7 4)" fill="#fff"/>
      </g>
      <text id="K" transform="translate(4652 826)" fill="#ff26a5" font-size="87" font-family="FreestyleScript-Regular, Freestyle Script"><tspan x="0" y="0">K</tspan></text>
    </g>
  </g>
</svg>
